# xmcd
#
# Track frame offsets: 
#        150
#        17875
#        36390
#        56257
#        74715
#        88282
#        107872
#        122215
#        136145
#        151047
#        163117
#        190150
#
# Disc length: 2931 seconds
#
# Revision: 0
# Processed by: cddbd v1.4PL0 Copyright (c) Steve Scherf et al.
# Submitted via: ExactAudioCopy v0.90b4
#
DISCID=a80b710c
DTITLE=Roscoe Shelton - Let It Shine
DYEAR=1998
DGENRE=R&B
TTITLE0=Lady
TTITLE1=Sometimes i Get Bitter
TTITLE2=Easy Gioig Fellow
TTITLE3=Let It Shine
TTITLE4=Why Did'n you Tell Me
TTITLE5=Save Me
TTITLE6=I Thank You
TTITLE7=All Night Long
TTITLE8=I Was Wrong
TTITLE9=Tht Rest Of My Life
TTITLE10=I Want Ypu
TTITLE11=Hard To Be Allone
EXTD=
EXTT0=Lady
EXTT1=Somertimes
EXTT2=
EXTT3=
EXTT4=
EXTT5=
EXTT6=
EXTT7=
EXTT8=
EXTT9=
EXTT10=
EXTT11=
PLAYORDER=
